
<svg viewBox="-4.8 -4.8 57.60 57.60" xmlns="http://www.w3.org/2000/svg" fill="#000000" stroke="#000000" stroke-width="0.624" transform="matrix(-1, 0, 0, 1, 0, 0)"><g id="SVGRepo_bgCarrier" stroke-width="0"><path transform="translate(-4.8, -4.8), scale(3.5999999999999996)" fill="#FE705A" d="M9.166.33a2.25 2.25 0 00-2.332 0l-5.25 3.182A2.25 2.25 0 00.5 5.436v5.128a2.25 2.25 0 001.084 1.924l5.25 3.182a2.25 2.25 0 002.332 0l5.25-3.182a2.25 2.25 0 001.084-1.924V5.436a2.25 2.25 0 00-1.084-1.924L9.166.33z" strokewidth="0"></path></g><g id="SVGRepo_tracerCarrier" stroke-linecap="round" stroke-linejoin="round"></g><g id="SVGRepo_iconCarrier"> <title>dev-ops</title> <g id="Layer_2" data-name="Layer 2"> <g id="invisible_box" data-name="invisible box"> <rect width="48" height="48" fill="none"></rect> </g> <g id="icons_Q2" data-name="icons Q2"> <path d="M46,24A12,12,0,0,0,34,12c-5.2,0-9.5,4.1-11.9,11.4C20.3,28.9,17.3,32,14,32a8,8,0,0,1,0-16h1.2l-1.6,1.6a1.9,1.9,0,0,0,.2,3,2.1,2.1,0,0,0,2.7-.2l4.9-5a1.9,1.9,0,0,0,0-2.8l-4.9-5a2.1,2.1,0,0,0-2.7-.2,1.9,1.9,0,0,0-.2,3L15.2,12H14a12,12,0,0,0,0,24c5.2,0,9.5-4.1,11.9-11.4C27.7,19.1,30.7,16,34,16a8,8,0,0,1,0,16H32.8l1.6-1.6a1.9,1.9,0,0,0-.2-3,2.1,2.1,0,0,0-2.7.2l-4.9,5a1.9,1.9,0,0,0,0,2.8l4.9,5a2.1,2.1,0,0,0,2.7.2,1.9,1.9,0,0,0,.2-3L32.8,36H34A12,12,0,0,0,46,24Z"></path> </g> </g> </g></svg>
    